<mxfile host="app.diagrams.net" agent="Mozilla/5.0 (Windows NT 10.0; Win64; x64) AppleWebKit/537.36 (KHTML, like Gecko) Chrome/129.0.0.0 Safari/537.36" version="24.8.0">
  <diagram name="Page-1" id="KETunvzwIfT7Efz8NksR">
    <mxGraphModel dx="1500" dy="1896" grid="1" gridSize="10" guides="1" tooltips="1" connect="1" arrows="1" fold="1" page="1" pageScale="1" pageWidth="850" pageHeight="1100" math="0" shadow="0">
      <root>
        <mxCell id="0" />
        <mxCell id="1" parent="0" />
        <mxCell id="bxwaDfBkpvu-U7tmfd5J-23" value="" style="edgeStyle=orthogonalEdgeStyle;rounded=0;orthogonalLoop=1;jettySize=auto;html=1;" edge="1" parent="1" source="bxwaDfBkpvu-U7tmfd5J-1" target="bxwaDfBkpvu-U7tmfd5J-22">
          <mxGeometry relative="1" as="geometry" />
        </mxCell>
        <mxCell id="bxwaDfBkpvu-U7tmfd5J-1" value="START" style="strokeWidth=2;html=1;shape=mxgraph.flowchart.terminator;whiteSpace=wrap;" vertex="1" parent="1">
          <mxGeometry x="160" y="-70" width="100" height="60" as="geometry" />
        </mxCell>
        <mxCell id="bxwaDfBkpvu-U7tmfd5J-30" style="edgeStyle=orthogonalEdgeStyle;rounded=0;orthogonalLoop=1;jettySize=auto;html=1;exitX=1;exitY=0.5;exitDx=0;exitDy=0;entryX=0;entryY=0.5;entryDx=0;entryDy=0;" edge="1" parent="1" source="bxwaDfBkpvu-U7tmfd5J-5" target="bxwaDfBkpvu-U7tmfd5J-8">
          <mxGeometry relative="1" as="geometry" />
        </mxCell>
        <mxCell id="bxwaDfBkpvu-U7tmfd5J-32" style="edgeStyle=orthogonalEdgeStyle;rounded=0;orthogonalLoop=1;jettySize=auto;html=1;exitX=1;exitY=0.5;exitDx=0;exitDy=0;entryX=0;entryY=0.5;entryDx=0;entryDy=0;" edge="1" parent="1" source="bxwaDfBkpvu-U7tmfd5J-5" target="bxwaDfBkpvu-U7tmfd5J-9">
          <mxGeometry relative="1" as="geometry" />
        </mxCell>
        <mxCell id="bxwaDfBkpvu-U7tmfd5J-33" value="" style="edgeStyle=orthogonalEdgeStyle;rounded=0;orthogonalLoop=1;jettySize=auto;html=1;entryX=0;entryY=0.5;entryDx=0;entryDy=0;" edge="1" parent="1" source="bxwaDfBkpvu-U7tmfd5J-5" target="bxwaDfBkpvu-U7tmfd5J-6">
          <mxGeometry relative="1" as="geometry" />
        </mxCell>
        <mxCell id="bxwaDfBkpvu-U7tmfd5J-5" value="Read c" style="shape=parallelogram;perimeter=parallelogramPerimeter;whiteSpace=wrap;html=1;fixedSize=1;" vertex="1" parent="1">
          <mxGeometry x="350" y="160" width="120" height="60" as="geometry" />
        </mxCell>
        <mxCell id="bxwaDfBkpvu-U7tmfd5J-13" value="" style="edgeStyle=orthogonalEdgeStyle;rounded=0;orthogonalLoop=1;jettySize=auto;html=1;" edge="1" parent="1" source="bxwaDfBkpvu-U7tmfd5J-6" target="bxwaDfBkpvu-U7tmfd5J-12">
          <mxGeometry relative="1" as="geometry" />
        </mxCell>
        <mxCell id="bxwaDfBkpvu-U7tmfd5J-6" value="k = c + 273.15" style="rounded=0;whiteSpace=wrap;html=1;" vertex="1" parent="1">
          <mxGeometry x="530" y="75" width="120" height="60" as="geometry" />
        </mxCell>
        <mxCell id="bxwaDfBkpvu-U7tmfd5J-16" value="" style="edgeStyle=orthogonalEdgeStyle;rounded=0;orthogonalLoop=1;jettySize=auto;html=1;" edge="1" parent="1" source="bxwaDfBkpvu-U7tmfd5J-8" target="bxwaDfBkpvu-U7tmfd5J-15">
          <mxGeometry relative="1" as="geometry" />
        </mxCell>
        <mxCell id="bxwaDfBkpvu-U7tmfd5J-8" value="r = (4/5) * c" style="rounded=0;whiteSpace=wrap;html=1;" vertex="1" parent="1">
          <mxGeometry x="530" y="-10" width="120" height="60" as="geometry" />
        </mxCell>
        <mxCell id="bxwaDfBkpvu-U7tmfd5J-17" value="" style="edgeStyle=orthogonalEdgeStyle;rounded=0;orthogonalLoop=1;jettySize=auto;html=1;" edge="1" parent="1" source="bxwaDfBkpvu-U7tmfd5J-9" target="bxwaDfBkpvu-U7tmfd5J-14">
          <mxGeometry relative="1" as="geometry" />
        </mxCell>
        <mxCell id="bxwaDfBkpvu-U7tmfd5J-9" value="f = (9/5) * c + 32" style="rounded=0;whiteSpace=wrap;html=1;" vertex="1" parent="1">
          <mxGeometry x="530" y="160" width="120" height="60" as="geometry" />
        </mxCell>
        <mxCell id="bxwaDfBkpvu-U7tmfd5J-99" style="edgeStyle=orthogonalEdgeStyle;rounded=0;orthogonalLoop=1;jettySize=auto;html=1;exitX=1;exitY=0.5;exitDx=0;exitDy=0;" edge="1" parent="1" source="bxwaDfBkpvu-U7tmfd5J-12">
          <mxGeometry relative="1" as="geometry">
            <mxPoint x="850" y="105.44444444444434" as="targetPoint" />
          </mxGeometry>
        </mxCell>
        <mxCell id="bxwaDfBkpvu-U7tmfd5J-12" value="Print k" style="shape=parallelogram;perimeter=parallelogramPerimeter;whiteSpace=wrap;html=1;fixedSize=1;" vertex="1" parent="1">
          <mxGeometry x="680" y="75" width="120" height="60" as="geometry" />
        </mxCell>
        <mxCell id="bxwaDfBkpvu-U7tmfd5J-100" style="edgeStyle=orthogonalEdgeStyle;rounded=0;orthogonalLoop=1;jettySize=auto;html=1;exitX=1;exitY=0.5;exitDx=0;exitDy=0;" edge="1" parent="1" source="bxwaDfBkpvu-U7tmfd5J-14">
          <mxGeometry relative="1" as="geometry">
            <mxPoint x="850" y="189.8888888888889" as="targetPoint" />
          </mxGeometry>
        </mxCell>
        <mxCell id="bxwaDfBkpvu-U7tmfd5J-14" value="Print f" style="shape=parallelogram;perimeter=parallelogramPerimeter;whiteSpace=wrap;html=1;fixedSize=1;" vertex="1" parent="1">
          <mxGeometry x="680" y="160" width="120" height="60" as="geometry" />
        </mxCell>
        <mxCell id="bxwaDfBkpvu-U7tmfd5J-15" value="Print r" style="shape=parallelogram;perimeter=parallelogramPerimeter;whiteSpace=wrap;html=1;fixedSize=1;" vertex="1" parent="1">
          <mxGeometry x="680" y="-10" width="120" height="60" as="geometry" />
        </mxCell>
        <mxCell id="bxwaDfBkpvu-U7tmfd5J-25" value="" style="edgeStyle=orthogonalEdgeStyle;rounded=0;orthogonalLoop=1;jettySize=auto;html=1;" edge="1" parent="1" source="bxwaDfBkpvu-U7tmfd5J-22">
          <mxGeometry relative="1" as="geometry">
            <mxPoint x="210" y="140" as="targetPoint" />
          </mxGeometry>
        </mxCell>
        <mxCell id="bxwaDfBkpvu-U7tmfd5J-22" value="Read put" style="shape=parallelogram;perimeter=parallelogramPerimeter;whiteSpace=wrap;html=1;fixedSize=1;" vertex="1" parent="1">
          <mxGeometry x="150" y="30" width="120" height="60" as="geometry" />
        </mxCell>
        <mxCell id="bxwaDfBkpvu-U7tmfd5J-27" style="edgeStyle=orthogonalEdgeStyle;rounded=0;orthogonalLoop=1;jettySize=auto;html=1;exitX=1;exitY=0.5;exitDx=0;exitDy=0;exitPerimeter=0;" edge="1" parent="1" source="bxwaDfBkpvu-U7tmfd5J-26" target="bxwaDfBkpvu-U7tmfd5J-5">
          <mxGeometry relative="1" as="geometry" />
        </mxCell>
        <mxCell id="bxwaDfBkpvu-U7tmfd5J-34" value="" style="edgeStyle=orthogonalEdgeStyle;rounded=0;orthogonalLoop=1;jettySize=auto;html=1;" edge="1" parent="1" source="bxwaDfBkpvu-U7tmfd5J-26" target="bxwaDfBkpvu-U7tmfd5J-29">
          <mxGeometry relative="1" as="geometry" />
        </mxCell>
        <mxCell id="bxwaDfBkpvu-U7tmfd5J-26" value="Case 1" style="strokeWidth=2;html=1;shape=mxgraph.flowchart.decision;whiteSpace=wrap;" vertex="1" parent="1">
          <mxGeometry x="160" y="140" width="100" height="100" as="geometry" />
        </mxCell>
        <mxCell id="bxwaDfBkpvu-U7tmfd5J-28" value="True" style="text;html=1;align=center;verticalAlign=middle;resizable=0;points=[];autosize=1;strokeColor=none;fillColor=none;" vertex="1" parent="1">
          <mxGeometry x="270" y="160" width="50" height="30" as="geometry" />
        </mxCell>
        <mxCell id="bxwaDfBkpvu-U7tmfd5J-49" value="" style="edgeStyle=orthogonalEdgeStyle;rounded=0;orthogonalLoop=1;jettySize=auto;html=1;" edge="1" parent="1" source="bxwaDfBkpvu-U7tmfd5J-29" target="bxwaDfBkpvu-U7tmfd5J-39">
          <mxGeometry relative="1" as="geometry" />
        </mxCell>
        <mxCell id="bxwaDfBkpvu-U7tmfd5J-51" value="" style="edgeStyle=orthogonalEdgeStyle;rounded=0;orthogonalLoop=1;jettySize=auto;html=1;" edge="1" parent="1" source="bxwaDfBkpvu-U7tmfd5J-29" target="bxwaDfBkpvu-U7tmfd5J-50">
          <mxGeometry relative="1" as="geometry" />
        </mxCell>
        <mxCell id="bxwaDfBkpvu-U7tmfd5J-29" value="Case 2" style="strokeWidth=2;html=1;shape=mxgraph.flowchart.decision;whiteSpace=wrap;" vertex="1" parent="1">
          <mxGeometry x="160" y="300" width="100" height="100" as="geometry" />
        </mxCell>
        <mxCell id="bxwaDfBkpvu-U7tmfd5J-35" value="False" style="text;html=1;align=center;verticalAlign=middle;resizable=0;points=[];autosize=1;strokeColor=none;fillColor=none;" vertex="1" parent="1">
          <mxGeometry x="210" y="250" width="50" height="30" as="geometry" />
        </mxCell>
        <mxCell id="bxwaDfBkpvu-U7tmfd5J-36" style="edgeStyle=orthogonalEdgeStyle;rounded=0;orthogonalLoop=1;jettySize=auto;html=1;exitX=1;exitY=0.5;exitDx=0;exitDy=0;entryX=0;entryY=0.5;entryDx=0;entryDy=0;" edge="1" parent="1" source="bxwaDfBkpvu-U7tmfd5J-39" target="bxwaDfBkpvu-U7tmfd5J-43">
          <mxGeometry relative="1" as="geometry" />
        </mxCell>
        <mxCell id="bxwaDfBkpvu-U7tmfd5J-37" style="edgeStyle=orthogonalEdgeStyle;rounded=0;orthogonalLoop=1;jettySize=auto;html=1;exitX=1;exitY=0.5;exitDx=0;exitDy=0;entryX=0;entryY=0.5;entryDx=0;entryDy=0;" edge="1" parent="1" source="bxwaDfBkpvu-U7tmfd5J-39" target="bxwaDfBkpvu-U7tmfd5J-45">
          <mxGeometry relative="1" as="geometry" />
        </mxCell>
        <mxCell id="bxwaDfBkpvu-U7tmfd5J-38" value="" style="edgeStyle=orthogonalEdgeStyle;rounded=0;orthogonalLoop=1;jettySize=auto;html=1;entryX=0;entryY=0.5;entryDx=0;entryDy=0;" edge="1" parent="1" source="bxwaDfBkpvu-U7tmfd5J-39" target="bxwaDfBkpvu-U7tmfd5J-41">
          <mxGeometry relative="1" as="geometry" />
        </mxCell>
        <mxCell id="bxwaDfBkpvu-U7tmfd5J-39" value="Read f" style="shape=parallelogram;perimeter=parallelogramPerimeter;whiteSpace=wrap;html=1;fixedSize=1;" vertex="1" parent="1">
          <mxGeometry x="340" y="320" width="120" height="60" as="geometry" />
        </mxCell>
        <mxCell id="bxwaDfBkpvu-U7tmfd5J-40" value="" style="edgeStyle=orthogonalEdgeStyle;rounded=0;orthogonalLoop=1;jettySize=auto;html=1;" edge="1" parent="1" source="bxwaDfBkpvu-U7tmfd5J-41" target="bxwaDfBkpvu-U7tmfd5J-46">
          <mxGeometry relative="1" as="geometry" />
        </mxCell>
        <mxCell id="bxwaDfBkpvu-U7tmfd5J-41" value="r = 4/9 * (f-32)" style="rounded=0;whiteSpace=wrap;html=1;" vertex="1" parent="1">
          <mxGeometry x="530" y="320" width="120" height="60" as="geometry" />
        </mxCell>
        <mxCell id="bxwaDfBkpvu-U7tmfd5J-42" value="" style="edgeStyle=orthogonalEdgeStyle;rounded=0;orthogonalLoop=1;jettySize=auto;html=1;" edge="1" parent="1" source="bxwaDfBkpvu-U7tmfd5J-43" target="bxwaDfBkpvu-U7tmfd5J-48">
          <mxGeometry relative="1" as="geometry" />
        </mxCell>
        <mxCell id="bxwaDfBkpvu-U7tmfd5J-43" value="k =&amp;nbsp; (f + 459.67) * 5/9" style="rounded=0;whiteSpace=wrap;html=1;" vertex="1" parent="1">
          <mxGeometry x="530" y="235" width="120" height="60" as="geometry" />
        </mxCell>
        <mxCell id="bxwaDfBkpvu-U7tmfd5J-44" value="" style="edgeStyle=orthogonalEdgeStyle;rounded=0;orthogonalLoop=1;jettySize=auto;html=1;" edge="1" parent="1" source="bxwaDfBkpvu-U7tmfd5J-45" target="bxwaDfBkpvu-U7tmfd5J-47">
          <mxGeometry relative="1" as="geometry" />
        </mxCell>
        <mxCell id="bxwaDfBkpvu-U7tmfd5J-45" value="c = (f - 32) * 5/9" style="rounded=0;whiteSpace=wrap;html=1;" vertex="1" parent="1">
          <mxGeometry x="530" y="405" width="120" height="60" as="geometry" />
        </mxCell>
        <mxCell id="bxwaDfBkpvu-U7tmfd5J-104" style="edgeStyle=orthogonalEdgeStyle;rounded=0;orthogonalLoop=1;jettySize=auto;html=1;exitX=1;exitY=0.5;exitDx=0;exitDy=0;" edge="1" parent="1" source="bxwaDfBkpvu-U7tmfd5J-46">
          <mxGeometry relative="1" as="geometry">
            <mxPoint x="850" y="349.8888888888887" as="targetPoint" />
          </mxGeometry>
        </mxCell>
        <mxCell id="bxwaDfBkpvu-U7tmfd5J-46" value="Print r" style="shape=parallelogram;perimeter=parallelogramPerimeter;whiteSpace=wrap;html=1;fixedSize=1;" vertex="1" parent="1">
          <mxGeometry x="680" y="320" width="120" height="60" as="geometry" />
        </mxCell>
        <mxCell id="bxwaDfBkpvu-U7tmfd5J-105" style="edgeStyle=orthogonalEdgeStyle;rounded=0;orthogonalLoop=1;jettySize=auto;html=1;exitX=1;exitY=0.5;exitDx=0;exitDy=0;" edge="1" parent="1" source="bxwaDfBkpvu-U7tmfd5J-47">
          <mxGeometry relative="1" as="geometry">
            <mxPoint x="850" y="435.44444444444434" as="targetPoint" />
          </mxGeometry>
        </mxCell>
        <mxCell id="bxwaDfBkpvu-U7tmfd5J-47" value="Print c" style="shape=parallelogram;perimeter=parallelogramPerimeter;whiteSpace=wrap;html=1;fixedSize=1;" vertex="1" parent="1">
          <mxGeometry x="680" y="405" width="120" height="60" as="geometry" />
        </mxCell>
        <mxCell id="bxwaDfBkpvu-U7tmfd5J-103" style="edgeStyle=orthogonalEdgeStyle;rounded=0;orthogonalLoop=1;jettySize=auto;html=1;exitX=1;exitY=0.5;exitDx=0;exitDy=0;" edge="1" parent="1" source="bxwaDfBkpvu-U7tmfd5J-48">
          <mxGeometry relative="1" as="geometry">
            <mxPoint x="850" y="265.44444444444434" as="targetPoint" />
          </mxGeometry>
        </mxCell>
        <mxCell id="bxwaDfBkpvu-U7tmfd5J-48" value="Print k" style="shape=parallelogram;perimeter=parallelogramPerimeter;whiteSpace=wrap;html=1;fixedSize=1;" vertex="1" parent="1">
          <mxGeometry x="680" y="235" width="120" height="60" as="geometry" />
        </mxCell>
        <mxCell id="bxwaDfBkpvu-U7tmfd5J-79" value="" style="edgeStyle=orthogonalEdgeStyle;rounded=0;orthogonalLoop=1;jettySize=auto;html=1;" edge="1" parent="1" source="bxwaDfBkpvu-U7tmfd5J-50" target="bxwaDfBkpvu-U7tmfd5J-69">
          <mxGeometry relative="1" as="geometry" />
        </mxCell>
        <mxCell id="bxwaDfBkpvu-U7tmfd5J-50" value="Case 3" style="strokeWidth=2;html=1;shape=mxgraph.flowchart.decision;whiteSpace=wrap;" vertex="1" parent="1">
          <mxGeometry x="160" y="480" width="100" height="100" as="geometry" />
        </mxCell>
        <mxCell id="bxwaDfBkpvu-U7tmfd5J-66" style="edgeStyle=orthogonalEdgeStyle;rounded=0;orthogonalLoop=1;jettySize=auto;html=1;exitX=1;exitY=0.5;exitDx=0;exitDy=0;entryX=0;entryY=0.5;entryDx=0;entryDy=0;" edge="1" parent="1" source="bxwaDfBkpvu-U7tmfd5J-69" target="bxwaDfBkpvu-U7tmfd5J-73">
          <mxGeometry relative="1" as="geometry" />
        </mxCell>
        <mxCell id="bxwaDfBkpvu-U7tmfd5J-67" style="edgeStyle=orthogonalEdgeStyle;rounded=0;orthogonalLoop=1;jettySize=auto;html=1;exitX=1;exitY=0.5;exitDx=0;exitDy=0;entryX=0;entryY=0.5;entryDx=0;entryDy=0;" edge="1" parent="1" source="bxwaDfBkpvu-U7tmfd5J-69" target="bxwaDfBkpvu-U7tmfd5J-75">
          <mxGeometry relative="1" as="geometry" />
        </mxCell>
        <mxCell id="bxwaDfBkpvu-U7tmfd5J-68" value="" style="edgeStyle=orthogonalEdgeStyle;rounded=0;orthogonalLoop=1;jettySize=auto;html=1;entryX=0;entryY=0.5;entryDx=0;entryDy=0;" edge="1" parent="1" source="bxwaDfBkpvu-U7tmfd5J-69" target="bxwaDfBkpvu-U7tmfd5J-71">
          <mxGeometry relative="1" as="geometry" />
        </mxCell>
        <mxCell id="bxwaDfBkpvu-U7tmfd5J-69" value="Read r" style="shape=parallelogram;perimeter=parallelogramPerimeter;whiteSpace=wrap;html=1;fixedSize=1;" vertex="1" parent="1">
          <mxGeometry x="330" y="500" width="120" height="60" as="geometry" />
        </mxCell>
        <mxCell id="bxwaDfBkpvu-U7tmfd5J-70" value="" style="edgeStyle=orthogonalEdgeStyle;rounded=0;orthogonalLoop=1;jettySize=auto;html=1;" edge="1" parent="1" source="bxwaDfBkpvu-U7tmfd5J-71" target="bxwaDfBkpvu-U7tmfd5J-76">
          <mxGeometry relative="1" as="geometry" />
        </mxCell>
        <mxCell id="bxwaDfBkpvu-U7tmfd5J-71" value="c = r / 0.8" style="rounded=0;whiteSpace=wrap;html=1;" vertex="1" parent="1">
          <mxGeometry x="520" y="565" width="120" height="60" as="geometry" />
        </mxCell>
        <mxCell id="bxwaDfBkpvu-U7tmfd5J-72" value="" style="edgeStyle=orthogonalEdgeStyle;rounded=0;orthogonalLoop=1;jettySize=auto;html=1;" edge="1" parent="1" source="bxwaDfBkpvu-U7tmfd5J-73" target="bxwaDfBkpvu-U7tmfd5J-78">
          <mxGeometry relative="1" as="geometry" />
        </mxCell>
        <mxCell id="bxwaDfBkpvu-U7tmfd5J-73" value="&amp;nbsp;f = (r * 2.25) + 32" style="rounded=0;whiteSpace=wrap;html=1;" vertex="1" parent="1">
          <mxGeometry x="520" y="480" width="120" height="60" as="geometry" />
        </mxCell>
        <mxCell id="bxwaDfBkpvu-U7tmfd5J-74" value="" style="edgeStyle=orthogonalEdgeStyle;rounded=0;orthogonalLoop=1;jettySize=auto;html=1;" edge="1" parent="1" source="bxwaDfBkpvu-U7tmfd5J-75" target="bxwaDfBkpvu-U7tmfd5J-77">
          <mxGeometry relative="1" as="geometry" />
        </mxCell>
        <mxCell id="bxwaDfBkpvu-U7tmfd5J-75" value="k = (r / 0.8) + 273.15" style="rounded=0;whiteSpace=wrap;html=1;" vertex="1" parent="1">
          <mxGeometry x="520" y="650" width="120" height="60" as="geometry" />
        </mxCell>
        <mxCell id="bxwaDfBkpvu-U7tmfd5J-116" style="edgeStyle=orthogonalEdgeStyle;rounded=0;orthogonalLoop=1;jettySize=auto;html=1;exitX=1;exitY=0.5;exitDx=0;exitDy=0;" edge="1" parent="1" source="bxwaDfBkpvu-U7tmfd5J-76">
          <mxGeometry relative="1" as="geometry">
            <mxPoint x="850" y="595.4444444444443" as="targetPoint" />
          </mxGeometry>
        </mxCell>
        <mxCell id="bxwaDfBkpvu-U7tmfd5J-76" value="Print c" style="shape=parallelogram;perimeter=parallelogramPerimeter;whiteSpace=wrap;html=1;fixedSize=1;" vertex="1" parent="1">
          <mxGeometry x="670" y="565" width="120" height="60" as="geometry" />
        </mxCell>
        <mxCell id="bxwaDfBkpvu-U7tmfd5J-117" style="edgeStyle=orthogonalEdgeStyle;rounded=0;orthogonalLoop=1;jettySize=auto;html=1;exitX=1;exitY=0.5;exitDx=0;exitDy=0;" edge="1" parent="1" source="bxwaDfBkpvu-U7tmfd5J-77">
          <mxGeometry relative="1" as="geometry">
            <mxPoint x="850" y="679.8888888888887" as="targetPoint" />
          </mxGeometry>
        </mxCell>
        <mxCell id="bxwaDfBkpvu-U7tmfd5J-77" value="Print k" style="shape=parallelogram;perimeter=parallelogramPerimeter;whiteSpace=wrap;html=1;fixedSize=1;" vertex="1" parent="1">
          <mxGeometry x="670" y="650" width="120" height="60" as="geometry" />
        </mxCell>
        <mxCell id="bxwaDfBkpvu-U7tmfd5J-115" style="edgeStyle=orthogonalEdgeStyle;rounded=0;orthogonalLoop=1;jettySize=auto;html=1;exitX=1;exitY=0.5;exitDx=0;exitDy=0;" edge="1" parent="1" source="bxwaDfBkpvu-U7tmfd5J-78">
          <mxGeometry relative="1" as="geometry">
            <mxPoint x="850" y="509.8888888888887" as="targetPoint" />
          </mxGeometry>
        </mxCell>
        <mxCell id="bxwaDfBkpvu-U7tmfd5J-78" value="Print f" style="shape=parallelogram;perimeter=parallelogramPerimeter;whiteSpace=wrap;html=1;fixedSize=1;" vertex="1" parent="1">
          <mxGeometry x="680" y="480" width="120" height="60" as="geometry" />
        </mxCell>
        <mxCell id="bxwaDfBkpvu-U7tmfd5J-95" value="" style="edgeStyle=orthogonalEdgeStyle;rounded=0;orthogonalLoop=1;jettySize=auto;html=1;" edge="1" parent="1" source="bxwaDfBkpvu-U7tmfd5J-80" target="bxwaDfBkpvu-U7tmfd5J-85">
          <mxGeometry relative="1" as="geometry" />
        </mxCell>
        <mxCell id="bxwaDfBkpvu-U7tmfd5J-113" style="edgeStyle=orthogonalEdgeStyle;rounded=0;orthogonalLoop=1;jettySize=auto;html=1;exitX=0.5;exitY=1;exitDx=0;exitDy=0;exitPerimeter=0;" edge="1" parent="1" source="bxwaDfBkpvu-U7tmfd5J-80" target="bxwaDfBkpvu-U7tmfd5J-110">
          <mxGeometry relative="1" as="geometry" />
        </mxCell>
        <mxCell id="bxwaDfBkpvu-U7tmfd5J-80" value="Case 4" style="strokeWidth=2;html=1;shape=mxgraph.flowchart.decision;whiteSpace=wrap;" vertex="1" parent="1">
          <mxGeometry x="160" y="670" width="100" height="100" as="geometry" />
        </mxCell>
        <mxCell id="bxwaDfBkpvu-U7tmfd5J-81" style="edgeStyle=orthogonalEdgeStyle;rounded=0;orthogonalLoop=1;jettySize=auto;html=1;exitX=0.5;exitY=1;exitDx=0;exitDy=0;exitPerimeter=0;entryX=0.5;entryY=0;entryDx=0;entryDy=0;entryPerimeter=0;" edge="1" parent="1" source="bxwaDfBkpvu-U7tmfd5J-50" target="bxwaDfBkpvu-U7tmfd5J-80">
          <mxGeometry relative="1" as="geometry" />
        </mxCell>
        <mxCell id="bxwaDfBkpvu-U7tmfd5J-82" style="edgeStyle=orthogonalEdgeStyle;rounded=0;orthogonalLoop=1;jettySize=auto;html=1;exitX=1;exitY=0.5;exitDx=0;exitDy=0;entryX=0;entryY=0.5;entryDx=0;entryDy=0;" edge="1" parent="1" source="bxwaDfBkpvu-U7tmfd5J-85" target="bxwaDfBkpvu-U7tmfd5J-89">
          <mxGeometry relative="1" as="geometry" />
        </mxCell>
        <mxCell id="bxwaDfBkpvu-U7tmfd5J-83" style="edgeStyle=orthogonalEdgeStyle;rounded=0;orthogonalLoop=1;jettySize=auto;html=1;exitX=1;exitY=0.5;exitDx=0;exitDy=0;entryX=0;entryY=0.5;entryDx=0;entryDy=0;" edge="1" parent="1" source="bxwaDfBkpvu-U7tmfd5J-85" target="bxwaDfBkpvu-U7tmfd5J-91">
          <mxGeometry relative="1" as="geometry" />
        </mxCell>
        <mxCell id="bxwaDfBkpvu-U7tmfd5J-84" value="" style="edgeStyle=orthogonalEdgeStyle;rounded=0;orthogonalLoop=1;jettySize=auto;html=1;entryX=0;entryY=0.5;entryDx=0;entryDy=0;" edge="1" parent="1" source="bxwaDfBkpvu-U7tmfd5J-85" target="bxwaDfBkpvu-U7tmfd5J-87">
          <mxGeometry relative="1" as="geometry" />
        </mxCell>
        <mxCell id="bxwaDfBkpvu-U7tmfd5J-85" value="Read k" style="shape=parallelogram;perimeter=parallelogramPerimeter;whiteSpace=wrap;html=1;fixedSize=1;" vertex="1" parent="1">
          <mxGeometry x="320" y="690" width="120" height="60" as="geometry" />
        </mxCell>
        <mxCell id="bxwaDfBkpvu-U7tmfd5J-86" value="" style="edgeStyle=orthogonalEdgeStyle;rounded=0;orthogonalLoop=1;jettySize=auto;html=1;" edge="1" parent="1" source="bxwaDfBkpvu-U7tmfd5J-87" target="bxwaDfBkpvu-U7tmfd5J-92">
          <mxGeometry relative="1" as="geometry" />
        </mxCell>
        <mxCell id="bxwaDfBkpvu-U7tmfd5J-96" value="" style="edgeStyle=orthogonalEdgeStyle;rounded=0;orthogonalLoop=1;jettySize=auto;html=1;" edge="1" parent="1" source="bxwaDfBkpvu-U7tmfd5J-87" target="bxwaDfBkpvu-U7tmfd5J-91">
          <mxGeometry relative="1" as="geometry" />
        </mxCell>
        <mxCell id="bxwaDfBkpvu-U7tmfd5J-87" value="&amp;nbsp;f = (k * 9/5) - 459.67" style="rounded=0;whiteSpace=wrap;html=1;" vertex="1" parent="1">
          <mxGeometry x="510" y="805" width="120" height="60" as="geometry" />
        </mxCell>
        <mxCell id="bxwaDfBkpvu-U7tmfd5J-88" value="" style="edgeStyle=orthogonalEdgeStyle;rounded=0;orthogonalLoop=1;jettySize=auto;html=1;" edge="1" parent="1" source="bxwaDfBkpvu-U7tmfd5J-89" target="bxwaDfBkpvu-U7tmfd5J-94">
          <mxGeometry relative="1" as="geometry" />
        </mxCell>
        <mxCell id="bxwaDfBkpvu-U7tmfd5J-89" value="&amp;nbsp;c = k - 273.15" style="rounded=0;whiteSpace=wrap;html=1;" vertex="1" parent="1">
          <mxGeometry x="510" y="720" width="120" height="60" as="geometry" />
        </mxCell>
        <mxCell id="bxwaDfBkpvu-U7tmfd5J-90" value="" style="edgeStyle=orthogonalEdgeStyle;rounded=0;orthogonalLoop=1;jettySize=auto;html=1;" edge="1" parent="1" source="bxwaDfBkpvu-U7tmfd5J-91" target="bxwaDfBkpvu-U7tmfd5J-93">
          <mxGeometry relative="1" as="geometry" />
        </mxCell>
        <mxCell id="bxwaDfBkpvu-U7tmfd5J-91" value="&amp;nbsp;r = 4/5 *(k - 273)" style="rounded=0;whiteSpace=wrap;html=1;" vertex="1" parent="1">
          <mxGeometry x="510" y="890" width="120" height="60" as="geometry" />
        </mxCell>
        <mxCell id="bxwaDfBkpvu-U7tmfd5J-119" style="edgeStyle=orthogonalEdgeStyle;rounded=0;orthogonalLoop=1;jettySize=auto;html=1;exitX=1;exitY=0.5;exitDx=0;exitDy=0;" edge="1" parent="1" source="bxwaDfBkpvu-U7tmfd5J-92">
          <mxGeometry relative="1" as="geometry">
            <mxPoint x="850" y="835.4444444444443" as="targetPoint" />
          </mxGeometry>
        </mxCell>
        <mxCell id="bxwaDfBkpvu-U7tmfd5J-92" value="Print f" style="shape=parallelogram;perimeter=parallelogramPerimeter;whiteSpace=wrap;html=1;fixedSize=1;" vertex="1" parent="1">
          <mxGeometry x="660" y="805" width="120" height="60" as="geometry" />
        </mxCell>
        <mxCell id="bxwaDfBkpvu-U7tmfd5J-120" style="edgeStyle=orthogonalEdgeStyle;rounded=0;orthogonalLoop=1;jettySize=auto;html=1;exitX=1;exitY=0.5;exitDx=0;exitDy=0;" edge="1" parent="1" source="bxwaDfBkpvu-U7tmfd5J-93">
          <mxGeometry relative="1" as="geometry">
            <mxPoint x="850" y="919.8888888888887" as="targetPoint" />
          </mxGeometry>
        </mxCell>
        <mxCell id="bxwaDfBkpvu-U7tmfd5J-93" value="Print r" style="shape=parallelogram;perimeter=parallelogramPerimeter;whiteSpace=wrap;html=1;fixedSize=1;" vertex="1" parent="1">
          <mxGeometry x="660" y="890" width="120" height="60" as="geometry" />
        </mxCell>
        <mxCell id="bxwaDfBkpvu-U7tmfd5J-118" style="edgeStyle=orthogonalEdgeStyle;rounded=0;orthogonalLoop=1;jettySize=auto;html=1;exitX=1;exitY=0.5;exitDx=0;exitDy=0;" edge="1" parent="1" source="bxwaDfBkpvu-U7tmfd5J-94">
          <mxGeometry relative="1" as="geometry">
            <mxPoint x="850" y="749.8888888888887" as="targetPoint" />
          </mxGeometry>
        </mxCell>
        <mxCell id="bxwaDfBkpvu-U7tmfd5J-94" value="Print c" style="shape=parallelogram;perimeter=parallelogramPerimeter;whiteSpace=wrap;html=1;fixedSize=1;" vertex="1" parent="1">
          <mxGeometry x="670" y="720" width="120" height="60" as="geometry" />
        </mxCell>
        <mxCell id="bxwaDfBkpvu-U7tmfd5J-97" value="END" style="strokeWidth=2;html=1;shape=mxgraph.flowchart.terminator;whiteSpace=wrap;" vertex="1" parent="1">
          <mxGeometry x="800" y="1080" width="100" height="60" as="geometry" />
        </mxCell>
        <mxCell id="bxwaDfBkpvu-U7tmfd5J-98" style="edgeStyle=orthogonalEdgeStyle;rounded=0;orthogonalLoop=1;jettySize=auto;html=1;exitX=1;exitY=0.5;exitDx=0;exitDy=0;entryX=0.5;entryY=0;entryDx=0;entryDy=0;entryPerimeter=0;" edge="1" parent="1" source="bxwaDfBkpvu-U7tmfd5J-15" target="bxwaDfBkpvu-U7tmfd5J-97">
          <mxGeometry relative="1" as="geometry">
            <Array as="points">
              <mxPoint x="850" y="20" />
            </Array>
          </mxGeometry>
        </mxCell>
        <mxCell id="bxwaDfBkpvu-U7tmfd5J-106" value="True" style="text;html=1;align=center;verticalAlign=middle;resizable=0;points=[];autosize=1;strokeColor=none;fillColor=none;" vertex="1" parent="1">
          <mxGeometry x="270" y="320" width="50" height="30" as="geometry" />
        </mxCell>
        <mxCell id="bxwaDfBkpvu-U7tmfd5J-107" value="False" style="text;html=1;align=center;verticalAlign=middle;resizable=0;points=[];autosize=1;strokeColor=none;fillColor=none;" vertex="1" parent="1">
          <mxGeometry x="210" y="410" width="50" height="30" as="geometry" />
        </mxCell>
        <mxCell id="bxwaDfBkpvu-U7tmfd5J-108" value="True" style="text;html=1;align=center;verticalAlign=middle;resizable=0;points=[];autosize=1;strokeColor=none;fillColor=none;" vertex="1" parent="1">
          <mxGeometry x="270" y="490" width="50" height="30" as="geometry" />
        </mxCell>
        <mxCell id="bxwaDfBkpvu-U7tmfd5J-109" value="False" style="text;html=1;align=center;verticalAlign=middle;resizable=0;points=[];autosize=1;strokeColor=none;fillColor=none;" vertex="1" parent="1">
          <mxGeometry x="210" y="580" width="50" height="30" as="geometry" />
        </mxCell>
        <mxCell id="bxwaDfBkpvu-U7tmfd5J-114" style="edgeStyle=orthogonalEdgeStyle;rounded=0;orthogonalLoop=1;jettySize=auto;html=1;entryX=0;entryY=0.5;entryDx=0;entryDy=0;" edge="1" parent="1" source="bxwaDfBkpvu-U7tmfd5J-110" target="bxwaDfBkpvu-U7tmfd5J-22">
          <mxGeometry relative="1" as="geometry">
            <Array as="points">
              <mxPoint x="70" y="1000" />
              <mxPoint x="70" y="60" />
            </Array>
          </mxGeometry>
        </mxCell>
        <mxCell id="bxwaDfBkpvu-U7tmfd5J-110" value="Case _" style="strokeWidth=2;html=1;shape=mxgraph.flowchart.decision;whiteSpace=wrap;" vertex="1" parent="1">
          <mxGeometry x="160" y="950" width="100" height="100" as="geometry" />
        </mxCell>
        <mxCell id="bxwaDfBkpvu-U7tmfd5J-111" value="True" style="text;html=1;align=center;verticalAlign=middle;resizable=0;points=[];autosize=1;strokeColor=none;fillColor=none;" vertex="1" parent="1">
          <mxGeometry x="260" y="690" width="50" height="30" as="geometry" />
        </mxCell>
        <mxCell id="bxwaDfBkpvu-U7tmfd5J-112" value="False" style="text;html=1;align=center;verticalAlign=middle;resizable=0;points=[];autosize=1;strokeColor=none;fillColor=none;" vertex="1" parent="1">
          <mxGeometry x="210" y="775" width="50" height="30" as="geometry" />
        </mxCell>
      </root>
    </mxGraphModel>
  </diagram>
</mxfile>
